# xmcd
#
# Track frame offsets:
#	150
#	19625
#	31636
#	48538
#	68739
#	90654
#	101516
#	119924
#	133719
#	146485
#	165901
#
# Disc length: 2365 seconds
#
# Revision: 1
# Processed by: cddbd v1.5.2PL0 Copyright (c) Steve Scherf et al.
# Submitted via: audiograbber 1.83.01
#
DISCID=8c093b0b
DTITLE=Alessandro Lepore - How much time
DYEAR=2005
DGENRE=Acoustic
TTITLE0=Pearl of the desert
TTITLE1=Sing for me
TTITLE2=DD
TTITLE3=In the city
TTITLE4=Nothing like you
TTITLE5=How much time
TTITLE6=Two hearts
TTITLE7=I might send your pictures
TTITLE8=Thousand ways
TTITLE9=Image
TTITLE10=Sleep sweet angel
EXTD=
EXTT0=
EXTT1=
EXTT2=
EXTT3=
EXTT4=
EXTT5=
EXTT6=
EXTT7=
EXTT8=
EXTT9=
EXTT10=
PLAYORDER=
